<?xml version="1.0" standalone="no"?>
<!DOCTYPE svg PUBLIC "-//W3C//DTD SVG 20010904//EN"
 "http://www.w3.org/TR/2001/REC-SVG-20010904/DTD/svg10.dtd">
<svg version="1.0" xmlns="http://www.w3.org/2000/svg"
 width="340.000000pt" height="340.000000pt" viewBox="0 0 340.000000 340.000000"
 preserveAspectRatio="xMidYMid meet">

<g transform="translate(0.000000,340.000000) scale(0.100000,-0.100000)"
fill="#000000" stroke="none">
<path d="M1590 2461 c-112 -37 -205 -117 -253 -219 -30 -62 -32 -75 -32 -172
0 -99 2 -110 33 -172 41 -84 128 -167 209 -199 46 -19 77 -23 153 -23 76 0
107 4 153 23 81 32 168 115 209 199 31 62 33 73 33 172 0 97 -2 110 -32 173
-39 82 -107 151 -189 191 -52 26 -71 30 -159 33 -55 1 -111 -1 -125 -6z m251
-80 c74 -35 125 -85 161 -159 30 -60 33 -76 33 -152 0 -66 -5 -96 -22 -132
-30 -67 -105 -143 -172 -175 -47 -23 -69 -27 -141 -27 -72 0 -94 4 -141 27
-67 32 -142 109 -171 174 -78 176 14 386 200 456 65 24 190 19 253 -12z"/>
<path d="M1293 1581 c-101 -83 -188 -231 -214 -365 -5 -27 -9 -100 -9 -162 0
-102 2 -114 19 -124 27 -14 1195 -14 1222 0 17 10 19 22 19 129 0 130 -20 233
-63 318 -64 125 -208 270 -245 246 -30 -19 -23 -38 28 -76 134 -100 208 -251
217 -444 l6 -113 -573 0 -573 0 6 113 c9 193 83 344 218 444 35 27 49 44 47
58 -5 36 -40 28 -105 -24z"/>
</g>
</svg>
